<svg width="55" height="44" viewBox="0 0 55 44" fill="none" xmlns="http://www.w3.org/2000/svg">
<path d="M28.3232 24.1188C28.4939 23.8343 28.863 23.7416 29.1476 23.9123C29.4321 24.083 29.5242 24.4521 29.3535 24.7366L19.6657 40.883C19.3625 41.3882 18.6905 41.5232 18.2158 41.1741L9.56197 34.8103C9.1379 34.4984 8.54466 34.5687 8.20522 34.9711L1.0602 43.44C0.846259 43.6936 0.467166 43.7254 0.213565 43.5116C-0.04 43.2976 -0.0724767 42.9186 0.141399 42.6649L8.01166 33.3375C8.35109 32.9352 8.94423 32.8649 9.36829 33.1767L17.865 39.4235C18.3396 39.7725 19.0116 39.6375 19.3148 39.1323L28.3232 24.1188ZM39.323 4.76413C43.0132 1.91092 47.7536 -0.529187 52.9425 0.0997243C53.1894 0.129701 53.3929 0.309008 53.4529 0.550324C53.7552 1.75927 54.4647 3.97796 53.7217 7.57627C53.0005 11.0684 50.9236 15.8142 45.8969 22.2324C45.749 22.4212 45.6702 22.6584 45.6901 22.8974C45.696 22.9678 45.7025 23.0407 45.7094 23.1167C45.7365 23.4133 45.7697 23.7518 45.7869 24.1129C45.8217 24.8438 45.7925 25.6906 45.5264 26.6528C44.9922 28.5841 43.5376 30.8619 40.023 33.6125C39.6572 33.8988 39.1187 33.6792 39.0572 33.2188C38.6823 30.4068 38.4047 28.6406 38.2554 27.7723C38.2182 27.5556 38.1082 27.359 37.9453 27.2114L29.1922 19.2792C29.0083 19.1125 28.7689 19.0202 28.5207 19.0202H23.1307C22.6841 19.0202 22.3936 18.5502 22.5933 18.1507C23.2693 16.7989 24.5476 14.8762 26.2093 13.4963C27.6198 12.325 29.3914 11.4842 31.3235 11.8446C31.7163 11.9178 32.1308 11.812 32.3933 11.5108C33.7976 9.89923 36.2277 7.15745 39.323 4.76413ZM32.9031 27.9254C33.1282 27.6817 33.5083 27.6663 33.7521 27.8914C33.9958 28.1165 34.0106 28.4966 33.7856 28.7404L30.1808 32.6456C29.9557 32.8892 29.5756 32.9046 29.3318 32.6796C29.0881 32.4545 29.0733 32.0744 29.2984 31.8306L32.9031 27.9254ZM39.892 27.0176C39.5944 27.2444 39.4487 27.6179 39.5095 27.9871C39.5976 28.5223 39.7124 29.2556 39.8505 30.2014C39.9643 30.9808 40.8877 31.3316 41.4483 30.7783C43.2514 28.9989 44.0367 27.5309 44.3682 26.3325C44.5901 25.5301 44.6174 24.8188 44.5865 24.1698C44.5722 23.8694 44.2237 23.7169 43.9844 23.8992L39.892 27.0176ZM52.5591 1.93664C52.467 1.52306 52.1098 1.22149 51.6863 1.20819C47.3816 1.07303 43.3686 3.15459 40.0576 5.71462C36.5917 8.39444 33.9906 11.5205 32.7196 12.9652C32.6668 13.0253 32.622 13.0903 32.5848 13.1611L30.248 17.6007C30.0354 18.0045 30.1232 18.501 30.4614 18.8075L38.1683 25.7917C38.5254 26.1153 39.0625 26.1382 39.4458 25.8462L44.5363 21.968C44.6023 21.9176 44.6627 21.8583 44.7142 21.7932C49.8424 15.3124 51.8619 10.6398 52.5447 7.33337C53.0516 4.87898 52.8295 3.15226 52.5591 1.93664ZM30.6751 14.2099C30.9803 13.6301 30.6426 12.9159 29.9912 12.9867C28.9324 13.1018 27.9163 13.6407 26.9767 14.4209C26.2913 14.9901 25.6715 15.6702 25.1408 16.3604C24.6671 16.9764 25.1361 17.8186 25.9132 17.8186H28.1724C28.5437 17.8186 28.8844 17.6129 29.0573 17.2843L30.6751 14.2099Z" fill="url(#paint0_linear_12_808)"/>
<circle cx="43.8584" cy="11.5104" r="3.1048" stroke="url(#paint1_linear_12_808)"/>
<defs>
<linearGradient id="paint0_linear_12_808" x1="27.025" y1="0.600782" x2="27.025" y2="43.0524" gradientUnits="userSpaceOnUse">
<stop offset="0.264423" stop-color="#EA0FE5"/>
<stop offset="1" stop-color="#4653FC"/>
</linearGradient>
<linearGradient id="paint1_linear_12_808" x1="43.8584" y1="7.90562" x2="43.8584" y2="15.1152" gradientUnits="userSpaceOnUse">
<stop offset="0.264423" stop-color="#EA0FE5"/>
<stop offset="1" stop-color="#4653FC"/>
</linearGradient>
</defs>
</svg>
