<svg width="167" height="59" viewBox="0 0 167 59" fill="none" xmlns="http://www.w3.org/2000/svg">
<path d="M161.615 53.2833V57.6767H159.091C157.292 57.6767 155.889 57.2222 154.883 56.3132C153.877 55.3841 153.375 53.8792 153.375 51.7986V45.0721H151.401V40.7695H153.375V36.6488H158.336V40.7695H161.586V45.0721H158.336V51.8592C158.336 52.3642 158.452 52.7278 158.684 52.95C158.917 53.1722 159.303 53.2833 159.845 53.2833H161.615Z" fill="#DD11EC"/>
<path d="M144.054 58.2775C142.601 58.2775 141.307 58.0159 140.173 57.4925C139.038 56.9692 138.143 56.2574 137.486 55.3573C136.829 54.4362 136.461 53.4104 136.381 52.28H141.427C141.486 52.8871 141.755 53.379 142.233 53.7558C142.71 54.1326 143.297 54.321 143.994 54.321C144.631 54.321 145.119 54.1954 145.457 53.9442C145.815 53.6721 145.994 53.3267 145.994 52.908C145.994 52.4056 145.745 52.0393 145.248 51.809C144.75 51.5578 143.944 51.2857 142.83 50.9926C141.636 50.6995 140.641 50.396 139.844 50.082C139.048 49.747 138.362 49.2341 137.785 48.5433C137.207 47.8316 136.919 46.8791 136.919 45.6859C136.919 44.681 137.178 43.7704 137.695 42.954C138.232 42.1167 139.009 41.4572 140.024 40.9758C141.058 40.4943 142.282 40.2536 143.696 40.2536C145.785 40.2536 147.427 40.7978 148.621 41.8864C149.835 42.9749 150.532 44.4194 150.711 46.2197H145.994C145.915 45.6126 145.656 45.1311 145.218 44.7753C144.8 44.4194 144.243 44.2414 143.546 44.2414C142.949 44.2414 142.491 44.367 142.173 44.6182C141.855 44.8485 141.695 45.173 141.695 45.5917C141.695 46.0941 141.944 46.4709 142.442 46.7221C142.959 46.9733 143.755 47.2245 144.83 47.4757C146.064 47.8106 147.069 48.1456 147.845 48.4805C148.621 48.7945 149.298 49.3179 149.875 50.0506C150.472 50.7623 150.781 51.7253 150.801 52.9394C150.801 53.9652 150.522 54.8863 149.965 55.7027C149.427 56.4982 148.641 57.1262 147.606 57.5867C146.591 58.0473 145.407 58.2775 144.054 58.2775Z" fill="url(#paint0_linear_36_8)"/>
<path d="M130.014 43.3119C130.604 42.3645 131.342 41.6231 132.228 41.0876C133.114 40.5316 134.097 40.2536 135.18 40.2536V45.845H133.792C132.533 45.845 131.588 46.1334 130.959 46.71C130.329 47.2661 130.014 48.2546 130.014 49.6757V57.6767H124.966V40.4389H130.014V43.3119Z" fill="url(#paint1_linear_36_8)"/>
<path d="M123.164 40.8544V58.0922H117.99V55.7444C117.466 56.5064 116.75 57.1242 115.842 57.5979C114.954 58.051 113.966 58.2775 112.877 58.2775C111.586 58.2775 110.446 57.9892 109.458 57.4126C108.469 56.8153 107.703 55.9606 107.158 54.8485C106.614 53.7364 106.341 52.4286 106.341 50.9252V40.8544H111.485V50.2147C111.485 51.368 111.777 52.2639 112.362 52.9023C112.947 53.5407 113.734 53.86 114.722 53.86C115.731 53.86 116.528 53.5407 117.113 52.9023C117.698 52.2639 117.99 51.368 117.99 50.2147V40.8544H123.164Z" fill="url(#paint2_linear_36_8)"/>
<path d="M100.65 45.6607C102.002 45.95 103.089 46.6287 103.909 47.6968C104.73 48.7426 105.14 49.9442 105.14 51.3016C105.14 53.2597 104.453 54.8174 103.078 55.9745C101.725 57.1093 99.8296 57.6767 97.3906 57.6767H86.5151V34.2456H97.0248C99.3972 34.2456 101.249 34.7907 102.579 35.8811C103.931 36.9714 104.608 38.4512 104.608 40.3203C104.608 41.6999 104.242 42.8459 103.51 43.7582C102.801 44.6705 101.847 45.3047 100.65 45.6607ZM92.2023 43.7248H95.9273C96.8585 43.7248 97.568 43.5246 98.0558 43.124C98.5658 42.7013 98.8208 42.0893 98.8208 41.2883C98.8208 40.4872 98.5658 39.8753 98.0558 39.4525C97.568 39.0297 96.8585 38.8183 95.9273 38.8183H92.2023V43.7248ZM96.3929 53.0706C97.3463 53.0706 98.078 52.8592 98.5879 52.4364C99.1201 51.9914 99.3861 51.3572 99.3861 50.5339C99.3861 49.7106 99.109 49.0653 98.5547 48.598C98.0225 48.1307 97.2798 47.8971 96.3264 47.8971H92.2023V53.0706H96.3929Z" fill="url(#paint3_linear_36_8)"/>
<path d="M66.0879 49.0246C66.0879 47.1826 66.3926 45.5654 67.0019 44.1732C67.6302 42.781 68.4775 41.71 69.5438 40.9604C70.6101 40.2107 71.8001 39.8359 73.1139 39.8359C74.1611 39.8359 75.1132 40.0822 75.97 40.5748C76.8459 41.0675 77.5313 41.7315 78.0264 42.5668V34.2456H82.9103V58.0205H78.0264V55.4502C77.5694 56.307 76.9125 56.9924 76.0557 57.5065C75.2179 58.0205 74.2373 58.2775 73.1139 58.2775C71.8001 58.2775 70.6101 57.9027 69.5438 57.153C68.4775 56.382 67.6302 55.3003 67.0019 53.9081C66.3926 52.4944 66.0879 50.8666 66.0879 49.0246ZM78.0264 49.0567C78.0264 47.6859 77.6837 46.6042 76.9982 45.8117C76.3318 45.0192 75.513 44.623 74.542 44.623C73.5709 44.623 72.7426 45.0192 72.0572 45.8117C71.3907 46.5828 71.0575 47.6538 71.0575 49.0246C71.0575 50.3954 71.3907 51.4877 72.0572 52.3017C72.7426 53.0942 73.5709 53.4904 74.542 53.4904C75.513 53.4904 76.3318 53.0942 76.9982 52.3017C77.6837 51.5092 78.0264 50.4275 78.0264 49.0567Z" fill="url(#paint4_linear_36_8)"/>
<path d="M58.2342 40.2536C60.0731 40.2536 61.5366 40.9126 62.6249 42.2307C63.732 43.5281 64.2855 45.3199 64.2855 47.6059V57.6767H59.5008V48.3164C59.5008 47.1631 59.2287 46.2672 58.6846 45.6288C58.1404 44.9904 57.4086 44.6711 56.4892 44.6711C55.5698 44.6711 54.838 44.9904 54.2939 45.6288C53.7497 46.2672 53.4776 47.1631 53.4776 48.3164V57.6767H48.6647V40.4389H53.4776V42.7249C53.9655 41.9629 54.6222 41.3657 55.4478 40.9332C56.2734 40.4801 57.2022 40.2536 58.2342 40.2536Z" fill="url(#paint5_linear_36_8)"/>
<path d="M47.4631 48.9829C47.4631 49.4853 47.432 50.0087 47.3698 50.553H35.3291C35.4121 51.6415 35.7544 52.4789 36.3559 53.065C36.9781 53.6302 37.7352 53.9128 38.6271 53.9128C39.9546 53.9128 40.8776 53.3476 41.3961 52.2172H47.0587C46.7683 53.3686 46.2394 54.4048 45.4719 55.3259C44.7252 56.247 43.7815 56.9692 42.6407 57.4925C41.4999 58.0159 40.2242 58.2775 38.8138 58.2775C37.1129 58.2775 35.5988 57.9112 34.2713 57.1785C32.9438 56.4458 31.9067 55.3991 31.16 54.0384C30.4133 52.6777 30.04 51.0868 30.04 49.2655C30.04 47.4443 30.4029 45.8533 31.1289 44.4926C31.8756 43.1319 32.9127 42.0853 34.2402 41.3526C35.5677 40.6199 37.0922 40.2536 38.8138 40.2536C40.4939 40.2536 41.9873 40.6094 43.294 41.3212C44.6008 42.0329 45.6171 43.0482 46.3431 44.367C47.0898 45.6859 47.4631 47.2245 47.4631 48.9829ZM42.0184 47.5699C42.0184 46.6488 41.7073 45.9161 41.085 45.3719C40.4628 44.8276 39.6849 44.5554 38.7516 44.5554C37.8597 44.5554 37.1026 44.8171 36.4803 45.3405C35.8788 45.8638 35.5054 46.607 35.3603 47.5699H42.0184Z" fill="url(#paint6_linear_36_8)"/>
<path d="M23.6725 43.3119C24.2629 42.3645 25.0009 41.6231 25.8865 41.0876C26.772 40.5316 27.756 40.2536 28.8384 40.2536V45.845H27.451C26.1915 45.845 25.2469 46.1334 24.6171 46.71C23.9874 47.2661 23.6725 48.2546 23.6725 49.6757V57.6767H18.6248V40.4389H23.6725V43.3119Z" fill="#17C1F4"/>
<path d="M19.2256 33.6448V38.452H12.64V58.2775H6.58556V38.452H0V33.6448H19.2256Z" fill="#0DCAEC"/>
<path d="M141.273 24.1188C141.444 23.8343 141.813 23.7416 142.098 23.9123C142.382 24.083 142.474 24.4521 142.304 24.7366L132.616 40.883C132.313 41.3882 131.641 41.5232 131.166 41.1741L122.512 34.8103C122.088 34.4984 121.495 34.5687 121.155 34.9711L114.01 43.44C113.797 43.6936 113.417 43.7254 113.164 43.5116C112.91 43.2976 112.878 42.9186 113.092 42.6649L120.962 33.3375C121.301 32.9352 121.894 32.8649 122.319 33.1767L130.815 39.4235C131.29 39.7725 131.962 39.6375 132.265 39.1323L141.273 24.1188ZM152.273 4.76413C155.963 1.91092 160.704 -0.529187 165.893 0.0997243C166.14 0.129701 166.343 0.309008 166.403 0.550324C166.705 1.75927 167.415 3.97796 166.672 7.57627C165.951 11.0684 163.874 15.8142 158.847 22.2324C158.699 22.4212 158.62 22.6584 158.64 22.8974C158.646 22.9678 158.653 23.0407 158.66 23.1167C158.687 23.4133 158.72 23.7518 158.737 24.1129C158.772 24.8438 158.743 25.6906 158.477 26.6528C157.942 28.5841 156.488 30.8619 152.973 33.6125C152.607 33.8988 152.069 33.6792 152.007 33.2188C151.633 30.4068 151.355 28.6406 151.206 27.7723C151.168 27.5556 151.058 27.359 150.896 27.2114L142.142 19.2792C141.959 19.1125 141.719 19.0202 141.471 19.0202H136.081C135.634 19.0202 135.344 18.5502 135.544 18.1507C136.22 16.7989 137.498 14.8762 139.16 13.4963C140.57 12.325 142.342 11.4842 144.274 11.8446C144.667 11.9178 145.081 11.812 145.344 11.5108C146.748 9.89923 149.178 7.15745 152.273 4.76413ZM145.853 27.9254C146.078 27.6817 146.459 27.6663 146.702 27.8914C146.946 28.1165 146.961 28.4966 146.736 28.7404L143.131 32.6456C142.906 32.8892 142.526 32.9046 142.282 32.6796C142.038 32.4545 142.024 32.0744 142.249 31.8306L145.853 27.9254ZM152.842 27.0176C152.545 27.2444 152.399 27.6179 152.46 27.9871C152.548 28.5223 152.663 29.2556 152.801 30.2014C152.915 30.9808 153.838 31.3316 154.399 30.7783C156.202 28.9989 156.987 27.5309 157.318 26.3325C157.54 25.5301 157.568 24.8188 157.537 24.1698C157.522 23.8694 157.174 23.7169 156.935 23.8992L152.842 27.0176ZM165.509 1.93664C165.417 1.52306 165.06 1.22149 164.637 1.20819C160.332 1.07303 156.319 3.15459 153.008 5.71462C149.542 8.39444 146.941 11.5205 145.67 12.9652C145.617 13.0253 145.572 13.0903 145.535 13.1611L143.198 17.6007C142.986 18.0045 143.073 18.501 143.412 18.8075L151.119 25.7917C151.476 26.1153 152.013 26.1382 152.396 25.8462L157.487 21.968C157.553 21.9176 157.613 21.8583 157.664 21.7932C162.793 15.3124 164.812 10.6398 165.495 7.33337C166.002 4.87898 165.78 3.15226 165.509 1.93664ZM143.625 14.2099C143.931 13.6301 143.593 12.9159 142.941 12.9867C141.883 13.1018 140.867 13.6407 139.927 14.4209C139.242 14.9901 138.622 15.6702 138.091 16.3604C137.617 16.9764 138.086 17.8186 138.863 17.8186H141.123C141.494 17.8186 141.835 17.6129 142.008 17.2843L143.625 14.2099Z" fill="url(#paint7_linear_36_8)"/>
<circle cx="156.809" cy="11.5104" r="3.1048" stroke="url(#paint8_linear_36_8)"/>
<defs>
<linearGradient id="paint0_linear_36_8" x1="150.801" y1="49.2655" x2="136.381" y2="49.2655" gradientUnits="userSpaceOnUse">
<stop stop-color="#EC19F0"/>
<stop offset="1" stop-color="#B129F2"/>
</linearGradient>
<linearGradient id="paint1_linear_36_8" x1="130.073" y1="40.2536" x2="130.073" y2="57.6767" gradientUnits="userSpaceOnUse">
<stop stop-color="#8F3AF8"/>
<stop offset="1" stop-color="#BA3AEC"/>
</linearGradient>
<linearGradient id="paint2_linear_36_8" x1="123.164" y1="49.5659" x2="106.341" y2="49.5659" gradientUnits="userSpaceOnUse">
<stop stop-color="#A735F6"/>
<stop offset="1" stop-color="#8B43F8"/>
</linearGradient>
<linearGradient id="paint3_linear_36_8" x1="86.5151" y1="45.9611" x2="105.14" y2="45.9611" gradientUnits="userSpaceOnUse">
<stop stop-color="#7949FE"/>
<stop offset="1" stop-color="#9536F5"/>
</linearGradient>
<linearGradient id="paint4_linear_36_8" x1="66.0879" y1="46.2615" x2="82.9103" y2="46.2615" gradientUnits="userSpaceOnUse">
<stop stop-color="#4E6AFD"/>
<stop offset="1" stop-color="#6B53FC"/>
</linearGradient>
<linearGradient id="paint5_linear_36_8" x1="48.6647" y1="48.9651" x2="64.2855" y2="48.9651" gradientUnits="userSpaceOnUse">
<stop stop-color="#2893FB"/>
<stop offset="1" stop-color="#3F7CF1"/>
</linearGradient>
<linearGradient id="paint6_linear_36_8" x1="30.04" y1="49.2655" x2="47.4631" y2="49.2655" gradientUnits="userSpaceOnUse">
<stop stop-color="#1AACF9"/>
<stop offset="1" stop-color="#229CF4"/>
</linearGradient>
<linearGradient id="paint7_linear_36_8" x1="139.975" y1="0.600782" x2="139.975" y2="43.0524" gradientUnits="userSpaceOnUse">
<stop offset="0.264423" stop-color="#EA0FE5"/>
<stop offset="1" stop-color="#4653FC"/>
</linearGradient>
<linearGradient id="paint8_linear_36_8" x1="156.809" y1="7.90562" x2="156.809" y2="15.1152" gradientUnits="userSpaceOnUse">
<stop offset="0.264423" stop-color="#EA0FE5"/>
<stop offset="1" stop-color="#4653FC"/>
</linearGradient>
</defs>
</svg>
