<svg width="165" height="38" viewBox="0 0 165 38" fill="none" xmlns="http://www.w3.org/2000/svg">
<path d="M0 3.61426C5.12748 4.23203 9.31655 6.59596 13.875 8.86426C52.0101 27.3199 94.7375 29.2344 135 16.6143C137.991 15.5457 140.944 14.447 143.871 13.2158C146.315 12.5252 147.632 12.7835 150 13.6143C150 14.6043 150 15.5943 150 16.6143C126.28 35.5903 93.4132 38.6017 64.3135 36.4121C43.2049 33.9769 22.3041 23.9217 6 10.6143C5.3168 10.0832 4.63359 9.55207 3.92969 9.00488C2.57258 7.93182 1.27534 6.78332 0 5.61426C0 4.95426 0 4.29426 0 3.61426Z" fill="#FF9804"/>
<path d="M164 1.61438C165.99 8.74415 163.764 14.926 161 21.6144C158.579 25.7819 156.666 29.059 152 30.6144C152.566 26.1976 153.728 22.2994 155.281 18.1534C156.251 14.7286 156.559 11.1463 157 7.61438C149.41 7.61438 141.82 7.61438 134 7.61438C135 4.61438 135 4.61438 136.723 3.44641C144.876 -0.106124 155.427 -1.24325 164 1.61438Z" fill="#FF9804"/>
</svg>
